<svg xmlns="http://www.w3.org/2000/svg" viewBox="0 0 800 620"><defs><linearGradient id="g" x1="0" y1="0" x2="1" y2="1"><stop offset="0" stop-color="#f3f4f6"/><stop offset="1" stop-color="#dbeafe"/></linearGradient></defs><rect width="800" height="620" rx="28" fill="url(#g)"/><ellipse cx="400" cy="500" rx="220" ry="35" fill="#9ca3af" opacity=".35"/><g transform="translate(160 90)"><path d="M140 310c-55-35-75-95-50-170 18-53 62-84 119-90l115-13c73-8 134 49 134 122v125c0 36-29 65-65 65H140z" fill="#202124"/><path d="M85 140c24-42 61-66 112-71l116-13c47-5 86 31 86 78v22H85z" fill="#33363a"/><rect x="110" y="180" width="250" height="82" rx="38" fill="#111315"/><circle cx="180" cy="221" r="11" fill="#ff9900"/><circle cx="300" cy="221" r="11" fill="#ff9900"/><path d="M205 220h70" stroke="#666" stroke-width="8" stroke-linecap="round"/><path d="M220 110c20 28 35 60 35 90" stroke="#555" stroke-width="7" fill="none"/></g><text x="400" y="570" text-anchor="middle" fill="#111827" font-family="Arial,Helvetica,sans-serif" font-size="24" font-weight="700">DEMO PRODUCT</text></svg>